<?xml version="1.0" encoding="utf-8"?>
<!-- Generator: Adobe Illustrator 19.1.1, SVG Export Plug-In . SVG Version: 6.00 Build 0)  -->
<svg version="1.1" id="Layer_1" xmlns="http://www.w3.org/2000/svg" xmlns:xlink="http://www.w3.org/1999/xlink" x="0px" y="0px"
	 viewBox="0 0 70 85" style="enable-background:new 0 0 70 85;" xml:space="preserve">
<style type="text/css">
	.st0{fill:#FCB715;}
	.st1{fill:#EEB414;}
</style>
<g id="Group_616" transform="translate(107.811 -92.238)">
	<path id="Path_1143" class="st0" d="M-70,112.2h1.7c0.5,0,0.9-0.4,0.9-0.9c0-0.5-0.4-0.9-0.9-0.9c0,0,0,0,0,0H-70
		c-0.5,0-0.9,0.4-0.9,0.9C-70.9,111.7-70.5,112.2-70,112.2z"/>
	<path id="Path_1144" class="st0" d="M-80.4,165.1c1.8,0,3.2-1.4,3.2-3.2c0-1.8-1.4-3.2-3.2-3.2c-1.8,0-3.2,1.4-3.2,3.2
		S-82.1,165.1-80.4,165.1L-80.4,165.1z M-80.4,160.5c0.8,0,1.4,0.6,1.4,1.4c0,0.8-0.6,1.4-1.4,1.4c-0.8,0-1.4-0.6-1.4-1.4l0,0
		C-81.8,161.1-81.1,160.5-80.4,160.5z"/>
	<path id="Path_1145" class="st0" d="M-46.2,133.8c-0.5-8.2-7-14.7-15.1-15.1v-10.5c0-3.8-3.1-7-7-7h-24.3c-3.8,0-7,3.1-7,7v53.1
		c0,3.8,3.1,7,7,7h24.3c3.8,0,7-3.1,7-7v-10.5C-52.4,150.3-45.7,142.7-46.2,133.8z M-63.1,161.3c0,2.8-2.3,5.2-5.2,5.2h-24.3
		c-2.8,0-5.2-2.3-5.2-5.2v-3.9h34.6V161.3z M-63.1,155.5h-34.6v-43.4H-73c0.5,0,0.9-0.4,0.9-0.9s-0.4-0.9-0.9-0.9h-24.7v-2.1
		c0-2.8,2.3-5.2,5.2-5.2h24.3c2.8,0,5.2,2.3,5.2,5.2v2.1h-2.1c-0.5,0-0.9,0.4-0.9,0.9s0.4,0.9,0.9,0.9l0,0h2.1v6.5
		c-8.9,0.5-15.6,8.1-15.2,16.9c0.5,8.2,7,14.7,15.2,15.2V155.5z M-62.2,149c-7.9,0-14.3-6.4-14.3-14.3s6.4-14.3,14.3-14.3
		c7.9,0,14.3,6.4,14.3,14.3c0,0,0,0,0,0C-47.9,142.6-54.3,149-62.2,149C-62.2,149-62.2,149-62.2,149L-62.2,149z"/>
	<path id="Path_1146" class="st0" d="M-62.9,126.8c1-0.4,2.1-0.5,3.2-0.3c0.4-0.3,0.5-0.8,0.4-1.3c-0.4,0.7-1.4,1-2.1,0.5
		c0,0-0.1-0.1-0.1-0.1c-0.7,0.5-1.7,0.4-2.2-0.3c0,0-0.1-0.1-0.1-0.1C-64,125.9-63.6,126.7-62.9,126.8z"/>
	<path id="Path_1147" class="st0" d="M-56.7,141.8c-1.1,0-2.2-0.2-3.3-0.5c4.1-2.2,5.6-7.3,3.4-11.4c-0.4-0.8-1-1.5-1.6-2.1
		c0,0-0.1,0-0.1,0c0,0,0,0.1,0,0.1c2.5,4,1.5,9.3-2.3,12.1l0.2-11.6c0-0.2-0.1-0.3-0.2-0.4l-0.6-0.5c-0.2-0.2-0.5-0.2-0.6,0
		l-0.6,0.5c-0.1,0.1-0.2,0.2-0.2,0.4l0.2,11.6c-3.8-2.8-4.8-8.1-2.3-12.1c0,0,0-0.1,0-0.1c0,0-0.1,0-0.1,0
		c-3.4,3.2-3.5,8.5-0.3,11.9c0.6,0.6,1.3,1.2,2.1,1.6c-1.1,0.4-2.2,0.5-3.3,0.5c-0.1,0-0.1,0-0.1,0.1c0,0,0,0.1,0.1,0.1
		c1.4,0.4,2.9,0.5,4.3,0.2l0.5,1c0,0,0.1,0.1,0.1,0c0,0,0,0,0,0l0.5-1c1.4,0.3,2.9,0.3,4.3-0.2C-56.6,142-56.6,141.9-56.7,141.8
		C-56.6,141.8-56.7,141.8-56.7,141.8L-56.7,141.8z"/>
	<path id="Path_1148" class="st0" d="M-57.2,127.1c-0.1,0-0.1,0-0.1,0.1c0,0,0,0.1,0,0.1c3.7,3.1,4.4,8.5,1.6,12.4
		c-0.1,0.2-0.3,0.4-0.5,0.6c3.5-1.9,4.8-6.3,2.9-9.8l0,0C-54.1,128.9-55.5,127.7-57.2,127.1z"/>
	<path id="Path_1149" class="st0" d="M-65.9,127.3c0,0,0-0.1,0-0.1c0,0-0.1,0-0.1,0c-1.7,0.6-3.1,1.8-3.9,3.4
		c-1.9,3.5-0.6,7.9,2.9,9.8c0,0,0,0,0,0l0.1,0c-0.2-0.2-0.3-0.4-0.5-0.6C-70.3,135.9-69.6,130.4-65.9,127.3z"/>
</g>
</svg>
