<?xml version="1.0" encoding="utf-8"?>
<!-- Generator: Adobe Illustrator 19.1.1, SVG Export Plug-In . SVG Version: 6.00 Build 0)  -->
<svg version="1.1" id="Layer_1" xmlns="http://www.w3.org/2000/svg" xmlns:xlink="http://www.w3.org/1999/xlink" x="0px" y="0px"
	 viewBox="0 0 70 85" style="enable-background:new 0 0 70 85;" xml:space="preserve">
<style type="text/css">
	.st0{fill:#FCB715;}
	.st1{fill:#EEB414;}
</style>
<g id="Group_240" transform="translate(-7082.266 198.712)">
	<path id="Path_655" class="st0" d="M7115.5-165.8c-0.2-0.2-0.4-0.3-0.6-0.3h-19.1c-1.9,0-3.5,1.6-3.5,3.5c0,0,0,0,0,0v34.8
		c0,1.9,1.6,3.5,3.5,3.5c0,0,0,0,0,0h24.3c1.9,0,3.5-1.6,3.5-3.5v-29.6c0-0.2-0.1-0.5-0.3-0.6L7115.5-165.8z M7121.9-127.9
		c0,1-0.8,1.7-1.7,1.7h-24.3c-1,0-1.7-0.8-1.7-1.7v-34.8c0-1,0.8-1.7,1.7-1.7c0,0,0,0,0,0h18.8l7.3,7.3L7121.9-127.9z"/>
	<path id="Path_656" class="st0" d="M7096.7-147v17.4c0,0.5,0.4,0.9,0.9,0.9c0,0,0,0,0,0h20.9c0.5,0,0.9-0.4,0.9-0.9c0,0,0,0,0,0
		V-147c0-0.5-0.4-0.9-0.9-0.9c0,0,0,0,0,0h-20.9C7097.1-147.8,7096.7-147.5,7096.7-147C7096.7-147,7096.7-147,7096.7-147z
		 M7107.1-130.5h-3.5v-5.2h3.5V-130.5z M7112.3-130.5h-3.5v-5.2h3.5V-130.5z M7114.1-146.1h3.5v15.7h-3.5V-146.1z M7098.4-146.1h8.7
		v3.5h-8.7L7098.4-146.1z M7098.4-140.9h9.6c0.5,0,0.9-0.4,0.9-0.9v-4.4h3.5v8.7h-13.9L7098.4-140.9z M7098.4-135.7h3.5v5.2h-3.5
		V-135.7z"/>
	<rect id="Rectangle_92" x="7128.1" y="-184" class="st0" width="1.7" height="1.7"/>
	<rect id="Rectangle_93" x="7096.7" y="-161.8" class="st0" width="6.1" height="1.7"/>
	<rect id="Rectangle_94" x="7096.7" y="-158.3" class="st0" width="12.2" height="1.7"/>
	<rect id="Rectangle_95" x="7088.9" y="-161.8" class="st0" width="1.7" height="25.2"/>
	<path id="Path_657" class="st0" d="M7136.4-141.7c0-0.5-0.4-0.9-0.9-0.9c0,0,0,0,0,0h-10.6v1.9h10.6
		C7136-140.8,7136.4-141.2,7136.4-141.7z"/>
	<path id="Path_658" class="st0" d="M7142.9-188h-27.8c-1.5,0-2.8,1.2-2.8,2.8v16.9h1.9v-10.4h2.8c0.5,0,0.9-0.4,0.9-0.9
		c0,0,0,0,0,0c0-0.5-0.4-0.9-0.9-0.9h-2.8v-4.6c0-0.5,0.4-0.9,0.9-0.9h27.8c0.5,0,0.9,0.4,0.9,0.9v4.6h-21.3c-0.5,0-0.9,0.4-0.9,0.9
		c0,0.5,0.4,0.9,0.9,0.9c0,0,0,0,0,0h21.3v36.2h-2.8c-0.5,0-0.9,0.4-0.9,0.9c0,0,0,0,0,0c0,0.5,0.4,0.9,0.9,0.9h2.8v5.6
		c0,0.5-0.4,0.9-0.9,0.9c0,0,0,0,0,0h-18v1.9h18c1.5,0,2.8-1.2,2.8-2.8c0,0,0,0,0,0v-50.1C7145.7-186.8,7144.4-188,7142.9-188z"/>
	<rect id="Rectangle_96" x="7127.3" y="-138.3" class="st0" width="3.4" height="1.7"/>
</g>
</svg>
