<?xml version="1.0" encoding="utf-8"?>
<!-- Generator: Adobe Illustrator 19.1.1, SVG Export Plug-In . SVG Version: 6.00 Build 0)  -->
<svg version="1.1" id="Layer_1" xmlns="http://www.w3.org/2000/svg" xmlns:xlink="http://www.w3.org/1999/xlink" x="0px" y="0px"
	 viewBox="0 0 70 85" style="enable-background:new 0 0 70 85;" xml:space="preserve">
<style type="text/css">
	.st0{fill:#FCB715;}
	.st1{fill:#EEB414;}
</style>
<g id="Group_250" transform="translate(-7251 51)">
	<g id="receipt_1_" transform="translate(3.075 0)">
		<path id="Subtraction_1_1_" class="st0" d="M7290.1,18L7290.1,18l-5.4-5.4l-5.4,5.4l-5.4-5.4l-5.4,5.4l-5.4-5.4l-2.7,2.7V6h1.8V11
			l0.9-0.9l5.4,5.3l5.4-5.4l5.4,5.4l5.4-5.4l5.4,5.4l5.4-5.4l5.4,5.4l5.4-5.4l0.9,0.9v-41.6h-44.6v12.4h-1.8V-28
			c-1.9-0.5-3.1-2.4-2.6-4.3c0.4-1.6,1.8-2.7,3.5-2.7h46.4c2,0,3.6,1.6,3.6,3.6c0,1.6-1.1,3.1-2.7,3.5v43.3l-2.7-2.7l-5.4,5.4
			l-5.4-5.4L7290.1,18L7290.1,18z M7308.8-32.3v2.4c0.9-0.5,1.1-1.6,0.7-2.4c-0.3-0.6-0.9-0.9-1.6-0.9h-46.4c-1,0-1.8,0.8-1.8,1.8
			c0,0.6,0.3,1.2,0.9,1.5v-2.4H7308.8z"/>
		<path id="Path_111_1_" class="st0" d="M7297.2,0.7h-13.4c-0.5,0-0.9,0.4-0.9,0.9s0.4,0.9,0.9,0.9h13.4c0.5,0,0.9-0.4,0.9-0.9
			S7297.7,0.7,7297.2,0.7z"/>
		<path id="Path_112_1_" class="st0" d="M7301,0.9c-0.2,0.2-0.3,0.4-0.3,0.6c0,0.5,0.4,0.9,0.9,0.9s0.9-0.4,0.9-0.9
			c0-0.2-0.1-0.5-0.3-0.6C7301.9,0.6,7301.4,0.6,7301,0.9z"/>
		<path id="Path_113_1_" class="st0" d="M7301.7-11.8h-13.4c-0.5,0-0.9,0.4-0.9,0.9s0.4,0.9,0.9,0.9h13.4c0.5,0,0.9-0.4,0.9-0.9
			S7302.2-11.8,7301.7-11.8z"/>
		<path id="Path_114_1_" class="st0" d="M7301.7-5.6h-8.9c-0.5,0-0.9,0.4-0.9,0.9s0.4,0.9,0.9,0.9h8.9c0.5,0,0.9-0.4,0.9-0.9
			S7302.2-5.6,7301.7-5.6z"/>
		<path id="Path_115_1_" class="st0" d="M7282.9-4.7c0,0.5,0.4,0.9,0.9,0.9l0,0h1.8c0.5,0,0.9-0.4,0.9-0.9s-0.4-0.9-0.9-0.9h-1.8
			C7283.3-5.6,7282.9-5.2,7282.9-4.7C7282.9-4.7,7282.9-4.7,7282.9-4.7z"/>
		<path id="Path_116_1_" class="st0" d="M7298.1-17.2c0-0.5-0.4-0.9-0.9-0.9l0,0h-13.4c-0.5,0-0.9,0.4-0.9,0.9
			c0,0.5,0.4,0.9,0.9,0.9h13.4C7297.7-16.3,7298.1-16.7,7298.1-17.2C7298.1-17.2,7298.1-17.2,7298.1-17.2z"/>
		<path id="Path_117_1_" class="st0" d="M7301-17.8c-0.2,0.2-0.3,0.4-0.3,0.6c0,0.5,0.4,0.9,0.9,0.9c0,0,0,0,0,0
			c0.2,0,0.5-0.1,0.6-0.3c0.4-0.3,0.4-0.9,0-1.3C7302-18.2,7301.4-18.2,7301-17.8C7301.1-17.8,7301-17.8,7301-17.8z"/>
		<path id="Path_118_1_" class="st0" d="M7285.3-10.3c0.3-0.4,0.3-0.9,0-1.3c-0.4-0.3-0.9-0.3-1.3,0c-0.3,0.4-0.3,0.9,0,1.3
			C7284.4-9.9,7285-9.9,7285.3-10.3z"/>
		<path id="Path_119_1_" class="st0" d="M7289.8-4c0.2-0.2,0.3-0.4,0.3-0.6c0-0.2-0.1-0.5-0.3-0.6c-0.4-0.3-0.9-0.3-1.3,0
			c-0.3,0.4-0.3,0.9,0,1.3C7288.9-3.7,7289.5-3.7,7289.8-4z"/>
		<circle id="Ellipse_33_1_" class="st0" cx="7293.6" cy="-25.2" r="0.9"/>
		<circle id="Ellipse_34_1_" class="st0" cx="7290.1" cy="-25.2" r="0.9"/>
		<circle id="Ellipse_35_1_" class="st0" cx="7297.2" cy="-25.2" r="0.9"/>
		<circle id="Ellipse_36_1_" class="st0" cx="7286.5" cy="-25.2" r="0.9"/>
		<circle id="Ellipse_37_1_" class="st0" cx="7300.8" cy="-25.2" r="0.9"/>
		<circle id="Ellipse_38_1_" class="st0" cx="7275.8" cy="-25.2" r="0.9"/>
		<circle id="Ellipse_39_1_" class="st0" cx="7279.3" cy="-25.2" r="0.9"/>
		<circle id="Ellipse_40_1_" class="st0" cx="7282.9" cy="-25.2" r="0.9"/>
		<circle id="Ellipse_41_1_" class="st0" cx="7304.3" cy="-25.2" r="0.9"/>
		<circle id="Ellipse_42_1_" class="st0" cx="7272.2" cy="-25.2" r="0.9"/>
		<circle id="Ellipse_43_1_" class="st0" cx="7268.6" cy="-25.2" r="0.9"/>
		<circle id="Ellipse_44_1_" class="st0" cx="7265.1" cy="-25.2" r="0.9"/>
	</g>
	<g id="loupe" transform="translate(0 13.283)">
		<g id="Group_243" transform="translate(8.339 8.252)">
			<g id="Group_242">
				<path id="Path_659" class="st0" d="M7259.3-31.6c0.3,0,0.5,0.2,0.5,0.5c0,0.3-0.2,0.5-0.5,0.5c-0.3,0-0.5-0.2-0.5-0.5l0,0
					C7258.8-31.4,7259-31.6,7259.3-31.6z"/>
			</g>
		</g>
		<g id="Group_245">
			<g id="Group_244">
				<path id="Path_660" class="st0" d="M7258-10.6l6.7-6.7c-1.1-1.6-1.7-3.6-1.7-5.5c0-5.6,4.5-10.1,10.1-10.1
					c5.6,0,10.1,4.5,10.1,10.1s-4.5,10.1-10.1,10.1l0,0c-2,0-3.9-0.6-5.5-1.7l-1.9,1.9l0,0l-4.9,4.9c-0.8,0.8-2.1,0.8-2.8,0
					S7257.2-9.8,7258-10.6z M7267.8-15.5L7267.8-15.5c4.1,2.9,9.7,2,12.7-2s2-9.7-2-12.7c-4.1-2.9-9.7-2-12.7,2
					c-2.3,3.2-2.3,7.5,0,10.6C7266.4-16.8,7267.1-16.1,7267.8-15.5z M7266.8-15.1c-0.5-0.4-1-0.9-1.4-1.4l-1.4,1.4
					c0.4,0.5,0.9,1,1.4,1.4L7266.8-15.1z M7258.7-8.4c0.4,0.4,1,0.4,1.4,0c0,0,0,0,0,0l4.5-4.5c-0.5-0.4-1-0.9-1.4-1.4l-4.5,4.5
					C7258.4-9.5,7258.3-8.8,7258.7-8.4C7258.7-8.4,7258.7-8.4,7258.7-8.4L7258.7-8.4z"/>
			</g>
		</g>
		<g id="Group_247" transform="translate(6.602 1.737)">
			<g id="Group_246">
				<path id="Path_661" class="st0" d="M7266.5-32.6c4.4,0,8.1,3.6,8.1,8.1s-3.6,8.1-8.1,8.1s-8.1-3.6-8.1-8.1
					C7258.5-29,7262.1-32.6,7266.5-32.6z M7266.5-17.5c3.9,0,7-3.2,7-7s-3.2-7-7-7s-7,3.2-7,7C7259.5-20.7,7262.7-17.5,7266.5-17.5z
					"/>
			</g>
		</g>
		<g id="Group_249" transform="translate(8.655 3.475)">
			<g id="Group_248">
				<path id="Path_662" class="st0" d="M7258.8-28.5c0.9-2.3,3.1-3.9,5.6-3.9c0.3,0,0.5,0.2,0.5,0.5c0,0.3-0.2,0.5-0.5,0.5
					c-2.1,0-3.9,1.3-4.7,3.2c-0.1,0.3-0.4,0.4-0.7,0.3C7258.9-27.9,7258.8-28.2,7258.8-28.5L7258.8-28.5L7258.8-28.5z"/>
			</g>
		</g>
	</g>
</g>
</svg>
