<?xml version="1.0" encoding="iso-8859-1"?>
<!-- Generator: Adobe Illustrator 21.0.0, SVG Export Plug-In . SVG Version: 6.00 Build 0)  -->
<svg version="1.1" id="Layer_1" xmlns="http://www.w3.org/2000/svg" xmlns:xlink="http://www.w3.org/1999/xlink" x="0px" y="0px"
	 viewBox="0 0 24 24" enable-background="new 0 0 24 24" xml:space="preserve">
<g>
	<path fill="#303C42" d="M22.5,11H19V5.5c0-0.1384888-0.0562744-0.2636108-0.1470947-0.354126L13.854126,0.1470947
		C13.7636108,0.0562744,13.6384888,0,13.5,0H3C1.8969727,0,1,0.8969727,1,2v20c0,1.1030273,0.8969727,2,2,2h14
		c1.1030273,0,2-0.8969727,2-2v-2h3.5c0.2763672,0,0.5-0.2236328,0.5-0.5v-8C23,11.2236328,22.7763672,11,22.5,11z M14,1.7070313
		L17.2929688,5H15c-0.5512695,0-1-0.4487305-1-1V1.7070313z M22,19H7v-7h15V19z"/>
	<path fill="#303C42" d="M16.5,17h-1c-0.2763672,0-0.5,0.2236328-0.5,0.5s0.2236328,0.5,0.5,0.5h1
		c0.8271484,0,1.5-0.6728516,1.5-1.5S17.3271484,15,16.5,15c-0.2758789,0-0.5-0.2241211-0.5-0.5s0.2241211-0.5,0.5-0.5h1
		c0.2763672,0,0.5-0.2236328,0.5-0.5S17.7763672,13,17.5,13h-1c-0.8271484,0-1.5,0.6728516-1.5,1.5s0.6728516,1.5,1.5,1.5
		c0.2758789,0,0.5,0.2241211,0.5,0.5S16.7758789,17,16.5,17z"/>
	<path fill="#303C42" d="M12.5,18c0.8271484,0,1.5-0.6728516,1.5-1.5v-3c0-0.2763672-0.2236328-0.5-0.5-0.5S13,13.2236328,13,13.5v3
		c0,0.2758789-0.2241211,0.5-0.5,0.5S12,16.7758789,12,16.5c0-0.2763672-0.2236328-0.5-0.5-0.5S11,16.2236328,11,16.5
		C11,17.3271484,11.6728516,18,12.5,18z"/>
</g>
<g>
</g>
<g>
</g>
<g>
</g>
<g>
</g>
<g>
</g>
<g>
</g>
<g>
</g>
<g>
</g>
<g>
</g>
<g>
</g>
<g>
</g>
<g>
</g>
<g>
</g>
<g>
</g>
<g>
</g>
</svg>
