<?xml version="1.0" encoding="utf-8"?>
<!-- Svg Vector Icons : http://www.onlinewebfonts.com/icon -->
<!DOCTYPE svg PUBLIC "-//W3C//DTD SVG 1.1//EN" "http://www.w3.org/Graphics/SVG/1.1/DTD/svg11.dtd">
<svg version="1.1" xmlns="http://www.w3.org/2000/svg" xmlns:xlink="http://www.w3.org/1999/xlink" x="0px" y="0px" viewBox="0 0 1000 1000" enable-background="new 0 0 1000 1000" xml:space="preserve">
<metadata> Svg Vector Icons : http://www.onlinewebfonts.com/icon </metadata>
<g><path d="M218.6,459.3c0-4.9,0-9.9,0-14.8c0-12.3,0-22.2,2.5-37l2.5-12.3h-116c-22.2,0-39.5,17.3-39.5,39.5s17.3,39.5,39.5,39.5h111.1V459.3z"/><path d="M275.4,269.2l7.4-9.9c12.3-14.8,24.7-27.2,37-37l9.9-7.4l-79-81.5c-14.8-14.8-42-14.8-56.8,0c-7.4,7.4-12.3,17.3-12.3,29.6c0,9.9,4.9,19.7,12.3,27.2L275.4,269.2z"/><path d="M717.2,256.9l7.4,9.9l81.5-79c7.4-7.4,12.3-17.3,12.3-27.2s-4.9-19.7-12.3-27.2c-14.8-14.8-42-14.8-56.8,0l-79,76.5l9.9,7.4C692.5,229.7,704.9,244.5,717.2,256.9z"/><path d="M527.2,153.2l12.3,2.5V49.5c0-22.2-17.3-39.5-39.5-39.5s-39.5,17.3-39.5,39.5v106.1l12.3-2.5C490.1,153.2,507.4,153.2,527.2,153.2z"/><path d="M268,624.7l-7.4-12.3l-66.6,64.2c-14.8,14.8-14.8,39.5,0,56.8c7.4,7.4,17.3,12.3,29.6,12.3c9.9,0,19.7-4.9,29.6-12.3l59.2-59.2l-9.9-7.4C295.1,656.8,280.3,641.9,268,624.7z"/><path d="M739.4,612.3l-7.4,12.3c-12.3,17.3-24.7,32.1-34.6,42l-7.4,7.4l59.2,59.2c7.4,7.4,17.3,12.3,29.6,12.3c9.9,0,19.7-4.9,29.6-12.3c14.8-14.8,14.8-39.5,0-56.8L739.4,612.3z"/><path d="M892.5,395.1H778.9l2.5,12.3c2.5,14.8,2.5,27.2,2.5,37c0,4.9,0,9.9,0,14.8v12.3h108.6c22.2,0,39.5-17.3,39.5-39.5C932,412.4,914.7,395.1,892.5,395.1z"/><path d="M769.1,444.5c0-56.8-19.7-113.6-54.3-158c-27.2-37-66.6-64.2-108.6-83.9v-2.5l-29.6-7.4c-14.8-4.9-32.1-7.4-46.9-9.9h-4.9c-14.8-2.5-34.6-2.5-51.8,0h-2.5c-17.3,2.5-32.1,4.9-46.9,9.9l-19.7,4.9l-9.9,4.9l0,0c-42,17.3-81.5,46.9-108.6,83.9c-34.6,46.9-54.3,101.2-54.3,158c0,39.5,7.4,74.1,19.7,106.1c17.3,42,42,71.6,66.6,93.8l4.9,4.9c7.4,7.4,14.8,14.8,19.7,22.2c4.9,7.4,7.4,12.3,7.4,12.3c4.9,24.7,4.9,54.3,4.9,59.2c0,34.6,24.7,61.7,56.8,71.6c-12.3,7.4-19.7,19.7-19.7,32.1c0,14.8,7.4,27.2,19.7,32.1c-12.3,7.4-19.7,19.7-19.7,32.1c0,19.7,17.3,37,37,37v4.9c0,22.2,29.6,37,56.8,37h34.6c27.2,0,56.8-14.8,56.8-39.5V948c19.7,0,37-17.3,37-37c0-14.8-7.4-27.2-19.7-32.1c12.3-7.4,19.7-19.7,19.7-32.1c0-14.8-7.4-27.2-19.7-32.1c32.1-7.4,56.8-37,56.8-71.6c0-12.3,0-37,4.9-56.8c0-2.5,2.5-4.9,2.5-7.4c4.9-7.4,14.8-17.3,24.7-27.2c17.3-17.3,39.5-42,56.8-74.1C756.7,538.3,769.1,493.8,769.1,444.5z M583.9,674c-4.9,24.7-4.9,51.8-4.9,71.6c0,2.5-2.5,7.4-7.4,7.4H428.4c-2.5,0-2.5,0-4.9-2.5c-2.5-2.5-2.5-2.5-2.5-7.4c0-27.2-2.5-49.4-4.9-69.1c-2.5-9.9-4.9-19.7-12.3-29.6c-7.4-12.3-19.7-24.7-29.6-34.6l-2.5-2.5c-14.8-14.8-34.6-34.6-46.9-59.2c-14.8-29.6-22.2-61.7-22.2-101.2c0-44.4,14.8-83.9,39.5-118.5c24.7-32.1,61.7-59.2,103.7-69.1l4.9-2.5c12.3-2.5,22.2-4.9,32.1-4.9l0,0h2.5c7.4,0,12.3,0,17.3,0h2.5c4.9,0,12.3,0,17.3,0v-12.3v12.3V242v9.9c9.9,0,19.7,2.5,29.6,4.9l4.9,2.5c39.5,12.3,76.5,37,103.7,69.1C687.6,363,700,405,700,446.9c0,32.1-4.9,56.8-14.8,81.5c-12.3,32.1-32.1,54.3-51.8,74.1l-4.9,4.9c-7.4,7.4-14.8,17.3-22.2,24.7C598.7,641.9,588.9,654.3,583.9,674z"/></g>
</svg>