<?xml version="1.0" encoding="UTF-8" standalone="no"?> <svg width="24" height="24" viewBox="0 0 24 24" fill="none" xmlns="http://www.w3.org/2000/svg">
<path d="M13.8292 19.0009C13.6796 19.001 13.5318 18.9676 13.3968 18.903C13.2618 18.8385 13.143 18.7445 13.0492 18.6279L8.22122 12.6279C8.07619 12.4478 7.99803 12.2231 8.00004 11.9919C8.00204 11.7607 8.08409 11.5374 8.23222 11.3599L13.2322 5.35988C13.3151 5.25543 13.418 5.1686 13.535 5.10452C13.6519 5.04043 13.7805 5.00038 13.9131 4.98671C14.0457 4.97305 14.1798 4.98605 14.3073 5.02495C14.4349 5.06385 14.5533 5.12786 14.6558 5.21322C14.7582 5.29859 14.8425 5.40358 14.9038 5.52201C14.9651 5.64045 15.002 5.76994 15.0125 5.90287C15.023 6.0358 15.0068 6.16948 14.9648 6.29605C14.9229 6.42262 14.856 6.53953 14.7682 6.63988L10.2932 12.0109L14.6082 17.3729C14.7268 17.5198 14.8013 17.6973 14.8232 17.8848C14.8452 18.0723 14.8135 18.2622 14.7321 18.4325C14.6506 18.6028 14.5225 18.7466 14.3628 18.8472C14.203 18.9477 14.018 19.001 13.8292 19.0009Z" fill="black"/>
</svg>
