<?xml version="1.0" encoding="utf-8"?>
<!-- Generator: Adobe Illustrator 19.1.1, SVG Export Plug-In . SVG Version: 6.00 Build 0)  -->
<svg version="1.1" id="Layer_1" xmlns="http://www.w3.org/2000/svg" xmlns:xlink="http://www.w3.org/1999/xlink" x="0px" y="0px"
	 viewBox="0 0 70 85" style="enable-background:new 0 0 70 85;" xml:space="preserve">
<style type="text/css">
	.st0{fill:#FCB715;}
	.st1{fill:#EEB414;}
</style>
<g id="Group_622" transform="translate(-244 28)">
	<path id="Path_956" class="st0" d="M308,16.1c-0.1,0-0.1,0.2-0.1,0.2c-0.4,1.4-1.9,2.1-3.2,1.7c-0.1,0-0.3-0.1-0.4-0.2
		c-2.8-1.4-6.2-1.2-8.7,0.6c-1.4,1-3.3,0.9-4.6-0.1c-2.3-1.5-5.1-1.8-7.7-0.9c-0.4,0.1-0.7,0.5-0.6,0.9c0,5.7,0,11.3,0,16.9
		c0,0.2,0,0.3,0,0.5c0,0.3,0.3,0.6,0.7,0.6c0.3,0,0.6-0.2,0.6-0.6c0,0,0,0,0,0c0-0.4,0.1-0.8,0.2-1.2c0.5-1.6,2.1-2.6,3.8-2.4
		c1.7,0.2,3,1.6,3.1,3.3c0.1,3.8-2.6,7.2-6.4,7.8c-0.2,0-0.3,0-0.4,0.1h-1.8c-1-0.2-1.9-0.5-2.8-0.9c-0.4-0.2-0.6-0.7-0.4-1.1
		c0,0,0,0,0,0c0.2-0.4,0.7-0.6,1.1-0.4c0,0,0,0,0.1,0c0.1,0,0.2,0.1,0.3,0.1c3,1.5,6.6,0.2,8.1-2.8c0.4-0.8,0.6-1.6,0.6-2.5
		c0.1-1-0.7-1.9-1.7-2c-1-0.1-1.9,0.7-2,1.7c0,0,0,0.1,0,0.1c0,1.3-1.1,2.4-2.4,2.4c-1.3,0-2.4-1.1-2.4-2.4c0,0,0,0,0-0.1
		c0-0.5,0-1.1,0-1.6c0-0.3-0.1-0.4-0.4-0.4c-1,0-1.9,0-2.9,0c-0.3,0-0.4,0.1-0.4,0.4c-0.1,1.5,0.1,3,0.6,4.4
		c0.2,0.4,0.1,0.9-0.3,1.1c0,0,0,0-0.1,0c-0.4,0.2-0.9,0.1-1.1-0.4c0,0,0,0,0-0.1c-0.5-1.1-0.8-2.3-0.8-3.5c0-3.4,0-6.7,0-10.1
		c0-2.4,0-4.9,0-7.3c0.1-0.3-0.1-0.6-0.4-0.7c-2.5-1-5.4-0.7-7.6,0.7c-1.5,1.2-3.6,1.2-5.1,0c-2.5-1.6-5.6-1.8-8.2-0.5
		c-1.2,0.7-2.9,0.3-3.6-0.9c-0.1-0.2-0.2-0.4-0.3-0.6c0,0-0.1-0.1-0.1-0.1V15c0.1-0.1,0.1-0.2,0.1-0.4c0.5-2.9,1.4-5.8,2.8-8.4
		c4.2-8.4,12.2-14.2,21.5-15.6c1-0.2,1.1-0.2,1-1.3c-0.1-1.1,0.4-2.3,1.3-3c0.5-0.4,1.1-0.6,1.7-0.8h1.1l0.4,0.1
		c1.3,0.4,2.2,1.4,2.5,2.7c0.1,0.5,0.1,1.1,0.1,1.6c0,0.4,0.1,0.5,0.5,0.6c3.9,0.5,7.6,1.8,11,3.9c0.7,0.4,1.4,0.9,2.1,1.4
		c0.4,0.2,0.6,0.7,0.4,1.2c0,0,0,0.1-0.1,0.1c-0.3,0.4-0.9,0.5-1.2,0.2c0,0,0,0-0.1-0.1c-0.1,0-0.1-0.1-0.2-0.1
		c-2.7-1.9-5.7-3.3-8.8-4.1c-1.1-0.3-2.2-0.5-3.3-0.6c1,0.7,2,1.5,2.9,2.3c3.2,3.2,5.5,7.2,6.7,11.6c1,3.4,1.5,7,1.6,10.6
		c0,0.6,0.1,0.6,0.6,0.3c3-2.1,7-2.4,10.3-0.7c0.3,0.2,0.8,0.2,1.1-0.1c0.3-0.2,0.4-0.6,0.3-1c-0.7-4.6-2.6-8.9-5.4-12.6
		c-0.8-1-1.7-2-2.6-2.9c-0.4-0.3-0.4-0.8-0.1-1.2c0.1-0.2,0.3-0.3,0.6-0.3c0.3,0,0.7,0.1,0.9,0.4c3.5,3.5,6.1,7.8,7.5,12.5
		c0.4,1.2,0.6,2.5,0.9,3.8V16.1z M275.1-7.7c-0.1,0-0.1,0-0.2,0C263-6,253.7,3.3,251.8,15.2c-0.1,0.4,0,0.8,0.3,1
		c0.3,0.2,0.8,0.2,1.2,0c3.2-1.6,7.1-1.3,10.1,0.7c0.6,0.4,0.7,0.4,0.7-0.3c0.1-3.1,0.5-6.2,1.3-9.3c1-4.3,3-8.3,5.9-11.6
		C272.4-5.6,273.7-6.7,275.1-7.7z M265.7,17.3c0.2-0.1,0.3-0.1,0.4-0.2c3.5-2.4,8.1-2.4,11.6,0c0.1,0.1,0.3,0.2,0.4,0.1
		s0.1-0.3,0.1-0.5c0-7.9,0-15.7,0-23.6c0-0.7,0-0.7-0.6-0.3c-3.9,2.2-7,5.7-8.8,9.9C267.3,6,266.4,9.4,266,13
		C265.8,14.4,265.7,15.8,265.7,17.3L265.7,17.3z M292.2,17.3c0-0.1,0-0.2,0.1-0.3c-0.1-4.3-0.9-8.6-2.3-12.7c-1.7-4.9-5-9-9.5-11.5
		c-0.6-0.3-0.6-0.3-0.6,0.3c0,3.9,0,7.8,0,11.8c0,3.9,0,7.9,0,11.8c0,0.2-0.1,0.4,0.1,0.5c0.2,0.1,0.3-0.1,0.4-0.2
		c0,0,0.1-0.1,0.1-0.1c2.7-1.7,6-2.2,9-1.1C290.5,16.2,291.4,16.7,292.2,17.3L292.2,17.3z M280.8,25.4c0-2,0-4.1,0-6.1
		c0-0.3,0-0.5-0.4-0.4c-0.9,0.4-1.9,0.4-2.8,0c-0.4-0.1-0.4,0-0.4,0.3c0,4.1,0,8.2,0,12.3c0,0.4,0.2,0.5,0.5,0.5c0.8,0,1.7,0,2.5,0
		c0.5,0,0.7-0.1,0.7-0.7C280.8,29.3,280.8,27.3,280.8,25.4L280.8,25.4z M278.9-9.7L278.9-9.7c0.2,0,0.4,0,0.6,0c1.4,0,1.4,0,1.3-1.4
		c-0.1-1-1-1.7-2-1.6c-0.9,0.1-1.5,0.8-1.6,1.6c0,0.4,0,0.7,0,1.1c0,0.3,0.1,0.4,0.4,0.3C278-9.7,278.5-9.7,278.9-9.7L278.9-9.7z"/>
	<path id="Path_957" class="st0" d="M263.5,35.1c-0.7,0-1.3-0.4-1.6-1c-0.1-0.1-0.2-0.3-0.2-0.5c-0.3-1.2-1.2-2.2-2.4-2.4
		c-1-0.2-1.6-1.2-1.4-2.2c0.1-0.5,0.4-0.9,0.9-1.2c0.1-0.1,0.3-0.2,0.5-0.2c1.2-0.3,2.2-1.2,2.5-2.4c0.2-1,1.2-1.6,2.1-1.4
		c0.1,0,0.1,0,0.2,0.1c0.5,0.1,0.9,0.5,1.1,1c0.1,0.3,0.3,0.7,0.4,1c0.2,0.7,0.8,1.2,1.5,1.5c0.4,0.1,0.7,0.2,1.1,0.4
		c0.7,0.3,1.1,1,1,1.7c0.1,0.7-0.4,1.4-1,1.6c-1.5,0.3-2.6,1.5-3,3C264.9,34.7,264.2,35.1,263.5,35.1z M263.5,25.5
		c-0.1,0.1-0.2,0.2-0.2,0.3c-0.4,1.7-1.7,3-3.4,3.4c-0.1,0-0.3,0.1-0.3,0.2c0,0.2,0.2,0.2,0.3,0.2c1.6,0.4,2.9,1.7,3.3,3.3
		c0,0.1,0.1,0.3,0.2,0.3c0.2,0,0.2-0.2,0.2-0.3c0.4-1.6,1.7-2.9,3.3-3.3c0.1,0,0.4-0.1,0.4-0.3c0-0.2-0.2-0.2-0.4-0.3
		c-1.6-0.4-2.9-1.7-3.3-3.3c0-0.1-0.1-0.2-0.1-0.3C263.6,25.6,263.6,25.5,263.5,25.5z"/>
	<path id="Path_958" class="st0" d="M301.6-2.5c-0.7,0-1.2-0.4-1.5-1c-0.1-0.3-0.2-0.5-0.3-0.8c-0.2-0.9-0.9-1.6-1.8-1.8
		c-0.3-0.1-0.5-0.2-0.7-0.3c-0.9-0.4-1.3-1.5-0.9-2.4c0.2-0.4,0.5-0.7,0.9-0.9c0.3-0.2,0.7-0.3,1-0.4c0.7-0.3,1.3-0.8,1.5-1.6
		c0.1-0.3,0.2-0.6,0.4-0.9c0.3-0.7,0.9-1.1,1.7-1.1c0.7-0.1,1.4,0.4,1.7,1c0.3,1.5,1.5,2.6,2.9,2.9c0.7,0.2,1.1,0.9,1.1,1.7
		c0.1,0.7-0.4,1.4-1,1.6c-1.5,0.3-2.6,1.5-3,3C303.1-2.8,302.3-2.4,301.6-2.5z M305.7-8c-0.1-0.2-0.3-0.3-0.5-0.4
		c-1.5-0.4-2.7-1.6-3.1-3.1c-0.1-0.2-0.1-0.5-0.3-0.6c-0.3,0-0.3,0.4-0.3,0.6c-0.4,1.4-1.5,2.6-3,3c-0.1,0-0.2,0.1-0.3,0.1
		c-0.1,0.1-0.3,0.1-0.3,0.2c0,0.2,0.2,0.2,0.3,0.2c0.1,0,0.2,0.1,0.3,0.1c1.5,0.4,2.6,1.5,3,3c0.1,0.2,0.1,0.5,0.3,0.6
		c0.3,0,0.3-0.4,0.4-0.6c0.4-1.5,1.6-2.6,3-3c0.1,0,0.3-0.1,0.4-0.2C305.6-8,305.6-8,305.7-8L305.7-8z"/>
</g>
</svg>
