<?xml version="1.0" encoding="utf-8"?>
<!-- Generator: Adobe Illustrator 19.1.1, SVG Export Plug-In . SVG Version: 6.00 Build 0)  -->
<svg version="1.1" id="Layer_1" xmlns="http://www.w3.org/2000/svg" xmlns:xlink="http://www.w3.org/1999/xlink" x="0px" y="0px"
	 viewBox="0 0 70 85" style="enable-background:new 0 0 70 85;" xml:space="preserve">
<style type="text/css">
	.st0{fill:#FCB715;}
	.st1{fill:#EEB414;}
</style>
<g id="Group_708" transform="translate(154 372)">
	<path id="Path_1344" class="st1" d="M-123.7-334.9c0-0.5-0.4-0.8-0.8-0.8h-4c-0.5,0-0.8,0.4-0.8,0.8c0,0.5,0.4,0.8,0.8,0.8h4
		C-124.1-334.1-123.7-334.4-123.7-334.9z"/>
	<path id="Path_1345" class="st1" d="M-136.4-335.7c-0.5,0-0.8,0.4-0.8,0.8c0,0.5,0.4,0.8,0.8,0.8h4c0.5,0,0.8-0.4,0.8-0.8
		c0-0.5-0.4-0.8-0.8-0.8H-136.4z"/>
	<path id="Path_1346" class="st1" d="M-144.3-335.7c-0.5,0-0.8,0.4-0.8,0.8c0,0.5,0.4,0.8,0.8,0.8h4c0.5,0,0.8-0.4,0.8-0.8
		c0-0.5-0.4-0.8-0.8-0.8H-144.3z"/>
	<path id="Path_1347" class="st1" d="M-104.1-341.3h1.7c0.3,0,0.6-0.3,0.6-0.6c0-0.3-0.3-0.6-0.6-0.6h-1.7c-0.3,0-0.5-0.2-0.5-0.5
		c0,0,0,0,0,0v-2c0-0.3,0.2-0.5,0.5-0.5l0,0h6.7c0.3,0,0.5,0.2,0.5,0.5c0,0,0,0,0,0v2c0,0.3-0.2,0.5-0.5,0.5l0,0h-2.8
		c-0.3,0-0.6,0.3-0.6,0.6c0,0.3,0.3,0.6,0.6,0.6h2.8c0.9,0,1.6-0.7,1.6-1.6v-2c0-0.9-0.7-1.6-1.6-1.6h-6.7c-0.9,0-1.6,0.7-1.6,1.6v2
		C-105.7-342-105-341.3-104.1-341.3z"/>
	<path id="Path_1351" class="st1" d="M-98.6-325.5h-7.6v-3c0-0.5-0.4-0.9-0.9-0.9H-122c-0.5,0-0.9,0.4-0.9,0.9v2.5h-0.2
		c-0.5,0-0.9,0.4-0.9,0.9v3.4c0,0.5,0.4,0.9,0.9,0.9h0.2v1.6h-0.2c-0.5,0-0.9,0.4-0.9,0.9v3.4c0,0.5,0.4,0.9,0.9,0.9h7.6v3
		c0,0.5,0.4,0.9,0.9,0.9h14.8c0.5,0,0.9-0.4,0.9-0.9v-2.5h0.2c0.5,0,0.9-0.4,0.9-0.9v-3.4c0-0.5-0.4-0.9-0.9-0.9h-0.2v-1.6h0.2
		c0.5,0,0.9-0.4,0.9-0.9v-3.4C-97.7-325.1-98.1-325.5-98.6-325.5z M-108.6-314.3c0,0.5,0.4,0.9,0.9,0.9h7v1.6h-13v-1.6h3
		c0.5,0,0.9-0.4,0.9-0.9c0-0.5-0.4-0.9-0.9-0.9h-1.9v-1.6h13v1.6h-8.1C-108.2-315.2-108.6-314.8-108.6-314.3L-108.6-314.3
		L-108.6-314.3z M-119.4-325.1c0-0.5-0.4-0.9-0.9-0.9h-0.7v-1.6h13v1.6h-9.6c-0.5,0-0.9,0.4-0.9,0.9c0,0.5,0.4,0.9,0.9,0.9h3.3v1.6
		h-7.8v-1.6h1.9C-119.8-324.2-119.4-324.6-119.4-325.1C-119.4-325.1-119.4-325.1-119.4-325.1L-119.4-325.1z M-102.5-321.2
		c0,0.5,0.4,0.9,0.9,0.9h0.9v1.6h-13v-1.6h8.5c0.5,0,0.9-0.4,1-0.9c0-0.5-0.4-0.9-0.9-1c0,0,0,0-0.1,0h-7.3v-1.6h13v1.6h-2
		C-102.1-322.1-102.5-321.7-102.5-321.2L-102.5-321.2z M-121.1-319.2v-1.6h5.5v1.6H-121.1z M-122.2-317.3h6.8
		c0.2,0.3,0.5,0.5,0.8,0.5h0.2v1.1h-7.8L-122.2-317.3z"/>
	<path id="Path_1352" class="st1" d="M-91.3-332.2c-0.4,0.1-0.8,0.4-0.8,0.9v14.1c0,1.7-1.4,3-3,3H-96c-0.5,0-0.8,0.4-0.8,0.8
		s0.4,0.8,0.8,0.8h0.9c2.6,0,4.7-2.1,4.7-4.7v-14.1C-90.4-331.8-90.7-332.2-91.3-332.2C-91.2-332.2-91.3-332.2-91.3-332.2z"/>
	<path id="Path_1353" class="st1" d="M-95.1-349h-47.8c-2.6,0-4.7,2.1-4.7,4.7v27.1c0,2.6,2.1,4.7,4.7,4.7h17.4
		c0.5,0,0.8-0.4,0.8-0.8c0-0.5-0.4-0.8-0.8-0.8l0,0h-17.4c-1.7,0-3-1.4-3-3v-20.6H-92v3.3c0,0.4,0.3,0.8,0.8,0.9
		c0.5,0,0.9-0.3,0.9-0.8c0,0,0-0.1,0-0.1v-9.8C-90.4-346.9-92.5-349-95.1-349z M-142.9-347.4h47.8c1.7,0,3,1.4,3,3v4.8H-146v-4.8
		C-145.9-346-144.6-347.4-142.9-347.4z"/>
</g>
</svg>
