<?xml version="1.0" encoding="UTF-8"?>
<svg version="1.0" viewBox="0 0 212.6 212.6" xmlns="http://www.w3.org/2000/svg" xmlns:cc="http://creativecommons.org/ns#" xmlns:dc="http://purl.org/dc/elements/1.1/" xmlns:rdf="http://www.w3.org/1999/02/22-rdf-syntax-ns#">
<metadata>
<rdf:RDF>
<cc:Work rdf:about="">
<dc:format>image/svg+xml</dc:format>
<dc:type rdf:resource="http://purl.org/dc/dcmitype/StillImage"/>
<dc:title/>
</cc:Work>
</rdf:RDF>
</metadata>
<g transform="translate(17.728 7.9865)">
<ellipse transform="matrix(1.0193 0 0 1.0193 28.869 19.944)" d="M 162.85714,76.884163 A 104.28571,104.28571 0 0 1 58.57143,181.16988 104.28571,104.28571 0 0 1 -45.714283,76.884163 104.28571,104.28571 0 0 1 58.57143,-27.40155 104.28571,104.28571 0 0 1 162.85714,76.884163 Z" fill="#fff"/>
<g transform="matrix(.18633 0 0 .18633 -1808.2 -1562.8)" fill-rule="evenodd">
<symbol>
<path class="fil0" d="m13816 8478.1c299.14 0 543.12 243.98 543.12 543.12 0 299.13-243.98 543.12-543.12 543.12-299.13 0-543.12-243.98-543.12-543.12 0-299.14 243.98-543.12 543.12-543.12z" fill="#fff"/>
<path class="fil1" d="m13816 8450.7c314.22 0 570.5 256.28 570.5 570.5 0 314.22-256.28 570.5-570.5 570.5s-570.5-256.28-570.5-570.5c0-314.22 256.28-570.5 570.5-570.5zm-13.508 577.37c18.075 0 34.78 6.0276 48.217 16.173-12.237-10.098-27.197-17.185-43.926-19.933-50.543-8.2953-98.531 26.154-106.83 76.697-0.256 1.5866-0.472 3.1732-0.649 4.7598-48.17-18.638-78.634-69.315-69.957-122.18l30.126-183.5 207.62 22.409c4.185 0.4489 8.169-4.2992 8.843-10.559 0.681-6.2598-2.205-11.752-6.386-12.201l-206.36-22.272 2.26-13.791 207.71 22.417c4.185 0.4489 8.169-4.2992 8.842-10.559 0.681-6.2598-2.205-11.752-6.386-12.201l-206.45-22.284 3.244-19.752 206.82 22.323c4.185 0.4489 8.17-4.2992 8.843-10.559 0.681-6.2598-2.201-11.752-6.386-12.201l-205.56-22.185 3.087-18.819 208.52 22.504c4.181 0.4489 8.169-4.2992 8.842-10.559 0.677-6.2598-2.204-11.752-6.386-12.201l-207.26-22.366 3.433-20.929c25.209-153.57 343.13-111.92 316.23 51.906l-57.003 347.29c-6.04 36.776-29.678 66.48-60.874 81.921 0.173-11.673-1.882-23.02-5.804-33.563 2.477 7.7126 3.827 15.933 3.827 24.453 0 37.327-25.709 68.831-60.327 77.72v283.97c0 17.417-11.574 31.665-25.724 31.665h-35.618c-14.146 0-25.721-14.248-25.721-31.665v-317.89c-8.259-12.61-13.082-27.661-13.082-43.807 0-44.197 36.039-80.236 80.236-80.236v0.0012z" fill="#f00"/>
</symbol>
<path class="fil1" d="m10180 8344.5c314.22 0 570.5 256.28 570.5 570.5s-256.28 570.5-570.5 570.5c-314.22 0-570.5-256.28-570.5-570.5s256.28-570.5 570.5-570.5zm-254.46 360.44 111.59-1.1679 3.007-218.19 78.813 1.0063-1.006 217.18 138.31 1.1679-2.683-220.2h76.592l-0.15 219.03 104.45 1.1679c17.173 0.192 31.036 18.854 31.036 41.906 0 23.059-13.862 41.917-31.036 41.917h-36.212v170.69c0 46.024-37.732 85.207-83.721 83.748l-63.789-2.0233c2.017 37.916-12.057 109.78 14.97 135.62 23.189 22.094 104.21 121.65 120.17 138.8l-52.083 68.951c-31.106-20.252-123.14-146.23-174.94-185.46-9.953-25.048-12.597-150.95-12.597-150.95-1.24-0.9725-9.343-3.311-9.485-4.937h-91.279c-46.028 0-83.736-37.681-83.736-83.748v-170.69h-36.224c-17.158 0-31.035-18.858-31.035-41.917 0-23.051 13.878-41.906 31.035-41.906z" fill="#004dff"/>
</g>
</g>
</svg>
