<?xml version="1.0" encoding="utf-8"?>
<!-- Svg Vector Icons : http://www.onlinewebfonts.com/icon -->
<!DOCTYPE svg PUBLIC "-//W3C//DTD SVG 1.1//EN" "http://www.w3.org/Graphics/SVG/1.1/DTD/svg11.dtd">
<svg version="1.1" xmlns="http://www.w3.org/2000/svg" xmlns:xlink="http://www.w3.org/1999/xlink" x="0px" y="0px" viewBox="0 0 1000 1000" enable-background="new 0 0 1000 1000" xml:space="preserve">
<metadata> Svg Vector Icons : http://www.onlinewebfonts.com/icon </metadata>
<g><path d="M990,499.4c0,269.9-219.8,490.6-492.1,489.8c-197.4-0.8-373.5-119.8-449.2-298.7c-24.7-58-38.6-122.9-38.6-191C10,229.6,229.8,10.1,502.1,10.9C773.2,11.6,990,230.4,990,499.4L990,499.4z M500.2,197.9L500.2,197.9c-30.5,0-54.5,24-54.5,54.9c0,29.8,24,54.1,54.5,54.1c29.7,0,54.1-24.3,54.1-54.1C554.3,221.9,529.9,197.9,500.2,197.9L500.2,197.9z M445.7,404.7L445.7,404.7v342.5c0,30.1,24.3,54.5,54.5,54.5c29.7,0,54.5-24.3,54.5-54.5V404.7c0-30.1-24.7-54.5-54.5-54.5C470,350.3,445.7,374.5,445.7,404.7L445.7,404.7z M501.3,119L501.3,119C289.7,118.3,119,289.9,119,499.4c0,53,10.8,102.8,30.1,148.5c58.7,139.1,195.4,231.5,349.2,232c155.2,0.7,293.6-91.2,352.6-232c19.3-45.6,30.5-95.5,30.5-148.5c0-51.7-11.2-102.4-30.5-148.4C792.6,211.8,655.1,119.9,501.3,119L501.3,119z"/></g>
</svg>